# xmcd CD database file generated by OrangeCD 5.2
#
# Track frame offsets:
#	150
#	20155
#	38614
#	54767
#	68793
#	81908
#	95430
#	105676
#	115727
#	125441
#	141177
#	155836
#	167289
#	189044
#	203158
#	218814
#	232477
#	253260
#	273110
#	287437
#	301441
#	319702
#
# Disc length: 4340 seconds
#
# Revision: 1
# Processed by: cddbd v1.5.1PL2 Copyright (c) Steve Scherf et al.
# Submitted via: OrangeCD 5.2
#
DISCID=3410f216
DTITLE=Johnny Cash - Unchained Melodies
DYEAR=1997
DGENRE=Country
TTITLE0=Folsom Prison Blues
TTITLE1=Bury Me Not
TTITLE2=Over The Next Hill You'll Be Home
TTITLE3=Country Boy
TTITLE4=Unchained
TTITLE5=Ring Of Fire
TTITLE6=Band Introduction
TTITLE7=I Walk The Line
TTITLE8=Guess Things Happen That Way
TTITLE9=I Still Miss Someone
TTITLE10=Rusty Cage
TTITLE11=Big River
TTITLE12=Orange Blossom Special
TTITLE13=Johnny Cash and June Carter - Jackson
TTITLE14=Johnny Cash and June Carter - If I Were A Carpenter
TTITLE15=Johnny Cash and June Carter - Shadow Water
TTITLE16=Sunday Morning Coming Down
TTITLE17=The Wall
TTITLE18=Ballad Of Ira Hayes
TTITLE19=Johnny Cash and June and John Carter-Cash - Daddy Sang Bass
TTITLE20=Southern Accents
TTITLE21=Instrumental Outro
EXTD=Recorded Live In Dusseldorf, April 10 1997
EXTT0=
EXTT1=
EXTT2=
EXTT3=
EXTT4=
EXTT5=
EXTT6=
EXTT7=
EXTT8=
EXTT9=
EXTT10=
EXTT11=
EXTT12=
EXTT13=
EXTT14=
EXTT15=
EXTT16=
EXTT17=
EXTT18=
EXTT19=
EXTT20=
EXTT21=
PLAYORDER=
